<svg width="74" height="69" viewBox="0 0 74 69" fill="none" xmlns="http://www.w3.org/2000/svg">
<path fill-rule="evenodd" clip-rule="evenodd" d="M25.8387 40.2134C25.9631 39.7528 26.4642 39.4735 26.9579 39.5896C27.4515 39.7057 27.7509 40.1732 27.6265 40.6338C26.7044 44.048 23.3406 46.4441 19.3581 46.4441C15.4786 46.4441 12.1824 44.0592 11.1001 40.6691C10.9548 40.2139 11.2325 39.7349 11.7204 39.5993C12.2083 39.4637 12.7217 39.7228 12.867 40.1781C13.7205 42.8513 16.3087 44.724 19.3581 44.724C22.5033 44.724 25.1249 42.8566 25.8387 40.2134ZM60.8677 40.2134C60.9921 39.7528 61.4932 39.4735 61.9868 39.5896C62.4805 39.7057 62.7798 40.1732 62.6554 40.6338C61.7333 44.048 58.3695 46.4441 54.3871 46.4441C50.5075 46.4441 47.2114 44.0592 46.1291 40.6691C45.9837 40.2139 46.2615 39.7349 46.7494 39.5993C47.2373 39.4637 47.7507 39.7228 47.896 40.1781C48.7494 42.8513 51.3376 44.724 54.3871 44.724C57.5323 44.724 60.1538 42.8566 60.8677 40.2134ZM54.3871 27.5225C54.8598 27.5225 55.2494 27.8545 55.3027 28.2822L55.3089 28.3825V31.4659L60.5698 36.3751C60.9298 36.711 60.9298 37.2556 60.5698 37.5915C60.2375 37.9015 59.7146 37.9254 59.353 37.663L59.2661 37.5915L54.3871 33.0399L49.508 37.5915C49.148 37.9274 48.5643 37.9274 48.2043 37.5915C47.872 37.2814 47.8465 36.7936 48.1277 36.4562L48.2043 36.3751L53.4652 31.4651V28.3825C53.4652 27.9075 53.878 27.5225 54.3871 27.5225ZM19.3581 27.5225C19.8308 27.5225 20.2205 27.8545 20.2737 28.2822L20.2799 28.3825V31.4659L23.7334 34.6888C24.0934 35.0247 24.0934 35.5693 23.7334 35.9052C23.4011 36.2152 22.8783 36.2391 22.5166 35.9767L22.4298 35.9052L19.3581 33.039L14.479 37.5915C14.119 37.9274 13.5354 37.9274 13.1754 37.5915C12.8431 37.2814 12.8175 36.7936 13.0987 36.4562L13.1754 36.3751L18.4363 31.4651V28.3825C18.4363 27.9075 18.849 27.5225 19.3581 27.5225ZM25.5408 36.3751C25.9008 36.711 25.9008 37.2556 25.5408 37.5915C25.1808 37.9274 24.5972 37.9274 24.2372 37.5915C23.8772 37.2556 23.8772 36.711 24.2372 36.3751C24.5972 36.0393 25.1808 36.0393 25.5408 36.3751Z" fill="#E1000F"/>
<path fill-rule="evenodd" clip-rule="evenodd" d="M36.8726 10.3209C34.8362 10.3209 33.1853 11.8612 33.1853 13.7612C33.1853 15.3372 34.3211 16.6657 35.8706 17.073C35.3673 19.3238 32.5135 21.0609 27.8475 22.2625L27.1768 22.4286L26.4825 22.5875C25.7763 22.7429 25.0351 22.8876 24.2602 23.0214C21.5788 23.4847 18.6979 23.7834 15.8157 23.9494C15.4792 23.9688 15.1507 23.9859 14.8311 24.0008L13.9003 24.0392C13.5996 24.05 13.3087 24.0587 13.0287 24.0657L12.614 24.0746L12.0257 24.082L11.8761 24.0879C11.4176 24.1376 11.0618 24.5011 11.0618 24.9422C11.0618 25.4172 11.4745 25.8023 11.9836 25.8023L12.8571 25.7903L13.516 25.7731L14.4392 25.7401L15.4195 25.6943L15.9293 25.6663C18.8805 25.4963 21.8329 25.1902 24.5959 24.7128C25.1246 24.6215 25.64 24.5252 26.1417 24.4239L26.8837 24.2681C31.0035 23.3693 34.1237 22.1038 35.9508 20.376V35.2631L35.957 35.3634C36.0102 35.7912 36.3998 36.1232 36.8726 36.1232C37.3817 36.1232 37.7944 35.7382 37.7944 35.2631V20.376C39.6215 22.1038 42.7416 23.3693 46.8614 24.2681L47.6035 24.4239C48.1051 24.5252 48.6205 24.6215 49.1492 24.7128C51.9123 25.1902 54.8647 25.4963 57.8159 25.6663L58.3257 25.6943L59.3059 25.7401L60.2292 25.7731L60.888 25.7903L61.7616 25.8023C62.2707 25.8023 62.6834 25.4172 62.6834 24.9422C62.6834 24.5011 62.3275 24.1376 61.8691 24.0879L61.7194 24.082L61.1311 24.0746L60.7165 24.0657C60.4364 24.0587 60.1456 24.05 59.8448 24.0392L58.914 24.0008C58.5945 23.9859 58.266 23.9688 57.9295 23.9494C55.0473 23.7834 52.1663 23.4847 49.4849 23.0214C48.7101 22.8876 47.9689 22.7429 47.2627 22.5875L46.5683 22.4286L45.8977 22.2625C41.2317 21.0609 38.3779 19.3238 37.8746 17.073C39.4241 16.6657 40.5598 15.3372 40.5598 13.7612C40.5598 11.8612 38.909 10.3209 36.8726 10.3209ZM38.7162 13.7612C38.7162 12.8112 37.8908 12.0411 36.8726 12.0411C35.8544 12.0411 35.029 12.8112 35.029 13.7612C35.029 14.7112 35.8544 15.4814 36.8726 15.4814C37.8908 15.4814 38.7162 14.7112 38.7162 13.7612Z" fill="#000091"/>
<path d="M36.8726 44.724C37.3453 44.724 37.7349 45.056 37.7882 45.4838L37.7944 45.5841V49.8844H47.0125C47.5217 49.8844 47.9344 50.2695 47.9344 50.7445C47.9344 51.1856 47.5785 51.5491 47.1201 51.5988L47.0125 51.6046H28.4925C28.0718 51.6046 27.7098 51.9291 27.6602 52.3628L27.6544 52.4647V53.3248H56.2307C57.7035 53.3248 58.9073 54.3989 58.9914 55.7534L58.9961 55.905V56.7651H61.7616C62.2707 56.7651 62.6834 57.1501 62.6834 57.6251C62.6834 58.0662 62.3275 58.4297 61.8691 58.4794L61.7616 58.4852H45.1689C44.6598 58.4852 44.2471 58.1001 44.2471 57.6251C44.2471 57.1841 44.603 56.8205 45.0614 56.7708L45.1689 56.7651H57.1525V55.905C57.1525 55.4639 56.7967 55.1004 56.3382 55.0507L56.2307 55.0449H17.5145C17.0417 55.0449 16.6521 55.3769 16.5989 55.8047L16.5927 55.905V56.7651H23.0454C23.5545 56.7651 23.9672 57.1501 23.9672 57.6251C23.9672 58.0662 23.6113 58.4297 23.1529 58.4794L23.0454 58.4852H11.9836C11.4745 58.4852 11.0618 58.1001 11.0618 57.6251C11.0618 57.1841 11.4176 56.8205 11.8761 56.7708L11.9836 56.7651H14.749V55.905C14.749 54.5309 15.9003 53.4076 17.352 53.3291L17.5145 53.3248H25.8108V52.4647C25.8108 51.099 26.918 49.9679 28.3339 49.8889L28.4925 49.8844H35.9508V45.5841C35.9508 45.1091 36.3635 44.724 36.8726 44.724Z" fill="#000091"/>
<path d="M36.8726 43.0038C37.3817 43.0038 37.7944 42.6188 37.7944 42.1438C37.7944 41.6688 37.3817 41.2837 36.8726 41.2837C36.3635 41.2837 35.9508 41.6688 35.9508 42.1438C35.9508 42.6188 36.3635 43.0038 36.8726 43.0038Z" fill="#000091"/>
</svg>
