<svg width="59" height="59" viewBox="0 0 59 59" fill="none" xmlns="http://www.w3.org/2000/svg">
<path fill-rule="evenodd" clip-rule="evenodd" d="M43.5125 56.05C43.1058 56.05 42.775 55.7192 42.775 55.3125C42.775 54.9058 43.1058 54.575 43.5125 54.575C43.9192 54.575 44.25 54.9058 44.25 55.3125C44.25 55.7192 43.9192 56.05 43.5125 56.05Z" fill="#CACAFB"/>
<path fill-rule="evenodd" clip-rule="evenodd" d="M49.4125 8.85C49.0058 8.85 48.675 8.51916 48.675 8.1125C48.675 7.70581 49.0058 7.375 49.4125 7.375C49.8191 7.375 50.15 7.70581 50.15 8.1125C50.15 8.51916 49.8191 8.85 49.4125 8.85Z" fill="#CACAFB"/>
<path fill-rule="evenodd" clip-rule="evenodd" d="M6.63749 11.8C6.23084 11.8 5.89999 11.4692 5.89999 11.0625C5.89999 10.6558 6.23084 10.325 6.63749 10.325C7.04415 10.325 7.37499 10.6558 7.37499 11.0625C7.37499 11.4692 7.04415 11.8 6.63749 11.8Z" fill="#CACAFB"/>
<path d="M27.2875 16.9625C27.2875 16.5552 26.9573 16.225 26.55 16.225H17.7L17.614 16.2299C17.2472 16.2725 16.9625 16.5843 16.9625 16.9625C16.9625 17.3698 17.2927 17.7 17.7 17.7H26.55L26.636 17.695C27.0028 17.6524 27.2875 17.3407 27.2875 16.9625Z" fill="#E1000F"/>
<path d="M28.7625 29.5C27.9479 29.5 27.2875 30.1604 27.2875 30.975C27.2875 32.8092 28.0314 33.925 29.5 33.925C29.9073 33.925 30.2375 33.5948 30.2375 33.1875C30.2375 32.7802 29.9073 32.45 29.5 32.45L29.4306 32.4475C29.3426 32.441 29.2634 32.4214 29.1931 32.3861C29.7977 32.2019 30.2375 31.6398 30.2375 30.975C30.2375 30.1604 29.5771 29.5 28.7625 29.5Z" fill="#E1000F"/>
<path d="M31.7125 30.975C31.7125 30.1604 32.3729 29.5 33.1875 29.5C34.0021 29.5 34.6625 30.1604 34.6625 30.975C34.6625 31.6398 34.2227 32.2019 33.6181 32.3861C33.6884 32.4214 33.7676 32.441 33.8556 32.4475L33.925 32.45C34.3323 32.45 34.6625 32.7802 34.6625 33.1875C34.6625 33.5948 34.3323 33.925 33.925 33.925C32.4564 33.925 31.7125 32.8092 31.7125 30.975Z" fill="#E1000F"/>
<path d="M25.075 19.175C25.4823 19.175 25.8125 19.5052 25.8125 19.9125C25.8125 20.2907 25.5278 20.6024 25.161 20.645L25.075 20.65H17.7C17.2927 20.65 16.9625 20.3198 16.9625 19.9125C16.9625 19.5343 17.2472 19.2225 17.614 19.1799L17.7 19.175H25.075Z" fill="#E1000F"/>
<path d="M22.8625 22.8625C22.8625 22.4552 22.5323 22.125 22.125 22.125H17.7L17.614 22.1299C17.2472 22.1725 16.9625 22.4843 16.9625 22.8625C16.9625 23.2698 17.2927 23.6 17.7 23.6H22.125L22.211 23.595C22.5778 23.5524 22.8625 23.2407 22.8625 22.8625Z" fill="#E1000F"/>
<path d="M41.3 36.875C41.7073 36.875 42.0375 37.2052 42.0375 37.6125C42.0375 37.9907 41.7528 38.3024 41.386 38.345L41.3 38.35H28.025C27.6177 38.35 27.2875 38.0198 27.2875 37.6125C27.2875 37.2343 27.5722 36.9225 27.939 36.8799L28.025 36.875H41.3Z" fill="#E1000F"/>
<path d="M39.0875 40.5625C39.0875 40.1552 38.7573 39.825 38.35 39.825H28.025L27.939 39.8299C27.5722 39.8725 27.2875 40.1843 27.2875 40.5625C27.2875 40.9698 27.6177 41.3 28.025 41.3H38.35L38.436 41.295C38.8028 41.2524 39.0875 40.9407 39.0875 40.5625Z" fill="#E1000F"/>
<path d="M23.6 8.84998C28.6549 8.84998 32.6623 11.8421 34.6093 16.6875C34.7612 17.0654 34.5779 17.4949 34.2 17.6468C33.822 17.7987 33.3925 17.6154 33.2407 17.2374C31.5088 12.9274 28.0233 10.325 23.6 10.325C17.4903 10.325 12.5375 15.2778 12.5375 21.3875C12.5375 23.7592 13.2848 26.0162 14.651 27.8923C14.8242 28.1301 14.8379 28.4451 14.6938 28.6947L14.6399 28.7754L11.8199 32.45H16.225C16.6032 32.45 16.9149 32.7347 16.9575 33.1015L16.9625 33.1875C16.9625 33.5657 16.6778 33.8774 16.311 33.92L16.225 33.925H10.325C9.74132 33.925 9.39964 33.286 9.69353 32.8059L9.73988 32.7385L13.1422 28.3038L13.1005 28.2421C11.8375 26.3116 11.126 24.0639 11.0665 21.7092L11.0625 21.3875C11.0625 14.4632 16.6757 8.84998 23.6 8.84998Z" fill="#3558A2"/>
<path d="M34.6625 20.65C42.8087 20.65 49.4125 27.2538 49.4125 35.4C49.4125 37.7088 48.881 39.9433 47.8739 41.9661C47.6923 42.3307 47.2496 42.4791 46.885 42.2975C46.5203 42.116 46.3719 41.6732 46.5535 41.3086C47.4595 39.489 47.9375 37.4794 47.9375 35.4C47.9375 28.0684 41.9941 22.125 34.6625 22.125C27.3309 22.125 21.3875 28.0684 21.3875 35.4C21.3875 42.6501 27.1996 48.5427 34.4186 48.6728L34.6625 48.675H47.2966L45.1114 45.3966C44.9016 45.0819 44.9655 44.6646 45.2471 44.4257L45.3159 44.3738C45.6306 44.164 46.0479 44.228 46.2868 44.5096L46.3386 44.5784L49.2886 49.0034C49.5998 49.4702 49.2959 50.0878 48.7575 50.1456L48.675 50.15H34.6625C26.5163 50.15 19.9125 43.5462 19.9125 35.4C19.9125 27.2538 26.5163 20.65 34.6625 20.65Z" fill="#3558A2"/>
<path d="M40.5625 14.0125C40.5625 14.4191 40.8933 14.75 41.3 14.75C41.7066 14.75 42.0375 14.4191 42.0375 14.0125C42.0375 13.6058 41.7066 13.275 41.3 13.275C40.8933 13.275 40.5625 13.6058 40.5625 14.0125Z" fill="#3558A2"/>
<path d="M44.25 14.75C43.8433 14.75 43.5125 14.4191 43.5125 14.0125C43.5125 13.6058 43.8433 13.275 44.25 13.275C44.6566 13.275 44.9875 13.6058 44.9875 14.0125C44.9875 14.4191 44.6566 14.75 44.25 14.75Z" fill="#3558A2"/>
<path d="M46.4625 14.0125C46.4625 14.4191 46.7933 14.75 47.2 14.75C47.6066 14.75 47.9375 14.4191 47.9375 14.0125C47.9375 13.6058 47.6066 13.275 47.2 13.275C46.7933 13.275 46.4625 13.6058 46.4625 14.0125Z" fill="#3558A2"/>
<path fill-rule="evenodd" clip-rule="evenodd" d="M50.15 10.325H38.35C37.9427 10.325 37.6125 10.6552 37.6125 11.0625V16.9625L37.6175 17.0485C37.6601 17.4153 37.9718 17.7 38.35 17.7H43.9439L46.6785 20.434L46.7409 20.4901C47.2107 20.8693 47.9375 20.541 47.9375 19.9125V17.7H50.15C50.5573 17.7 50.8875 17.3698 50.8875 16.9625V11.0625C50.8875 10.6552 50.5573 10.325 50.15 10.325ZM49.4125 11.8V16.225H47.2L47.114 16.2299C46.7472 16.2725 46.4625 16.5843 46.4625 16.9625V18.1314L44.7715 16.441L44.6984 16.377C44.5704 16.2789 44.413 16.225 44.25 16.225H39.0875V11.8H49.4125Z" fill="#3558A2"/>
<path d="M11.8 42.775C12.2073 42.775 12.5375 43.1052 12.5375 43.5125C12.5375 43.8907 12.2528 44.2024 11.886 44.245L11.8 44.25H8.84999C8.44268 44.25 8.11249 43.9198 8.11249 43.5125C8.11249 43.1343 8.39719 42.8225 8.76398 42.7799L8.84999 42.775H11.8Z" fill="#3558A2"/>
<path d="M14.0125 43.5125C14.0125 43.9191 14.3433 44.25 14.75 44.25C15.1566 44.25 15.4875 43.9191 15.4875 43.5125C15.4875 43.1058 15.1566 42.775 14.75 42.775C14.3433 42.775 14.0125 43.1058 14.0125 43.5125Z" fill="#3558A2"/>
<path d="M17.7 44.25C17.2933 44.25 16.9625 43.9191 16.9625 43.5125C16.9625 43.1058 17.2933 42.775 17.7 42.775C18.1066 42.775 18.4375 43.1058 18.4375 43.5125C18.4375 43.9191 18.1066 44.25 17.7 44.25Z" fill="#3558A2"/>
</svg>
